<svg width="32" height="32" viewBox="0 0 32 32" fill="none" xmlns="http://www.w3.org/2000/svg">
<path d="M30.6667 12V20H29.3333V22.6667H28V25.3334H26.6667V26.6667H25.3333V28H24V29.3334H21.3333V30.6667H20V24H18.6667V22.6667H20V21.3334H22.6667V20H24V18.6667H25.3333V12H24V8.00004H21.3333V9.33337H20V10.6667H18.6667V9.33337H13.3333V10.6667H12V9.33337H10.6667V8.00004H8V12H6.66667V18.6667H8V20H9.33334V21.3334H12V24H9.33334V22.6667H8V21.3334H5.33334V22.6667H6.66667V25.3334H8V26.6667H12V30.6667H10.6667V29.3334H8V28H6.66667V26.6667H5.33334V25.3334H4V22.6667H2.66667V20H1.33334V12H2.66667V9.33337H4V6.66671H5.33334V5.33337H6.66667V4.00004H9.33334V2.66671H12V1.33337H20V2.66671H22.6667V4.00004H25.3333V5.33337H26.6667V6.66671H28V9.33337H29.3333V12H30.6667Z" fill="#59B5F8"/>
</svg>
